<?xml version="1.0" encoding="UTF-8"?>
<svg xmlns="http://www.w3.org/2000/svg" xmlns:xlink="http://www.w3.org/1999/xlink" width="300pt" height="299.999988pt" viewBox="0 0 300 299.999988" version="1.2">
<g id="surface1">
<path style=" stroke:none;fill-rule:nonzero;fill:rgb(0%,0%,0%);fill-opacity:1;" d="M 279.875 78.375 C 266.464844 55.394531 248.269531 37.199219 225.289062 23.789062 C 202.304688 10.375 177.214844 3.671875 149.996094 3.671875 C 122.785156 3.671875 97.683594 10.375 74.707031 23.789062 C 51.722656 37.199219 33.53125 55.394531 20.117188 78.375 C 6.707031 101.359375 0 126.453125 0 153.664062 C 0 186.347656 9.535156 215.738281 28.613281 241.84375 C 47.6875 267.953125 72.328125 286.015625 102.535156 296.042969 C 106.050781 296.695312 108.65625 296.234375 110.347656 294.675781 C 112.039062 293.117188 112.886719 291.160156 112.886719 288.820312 C 112.886719 288.429688 112.851562 284.914062 112.789062 278.273438 C 112.71875 271.632812 112.6875 265.835938 112.6875 260.894531 L 108.195312 261.671875 C 105.332031 262.195312 101.71875 262.417969 97.355469 262.355469 C 92.996094 262.292969 88.46875 261.835938 83.785156 260.988281 C 79.09375 260.144531 74.734375 258.191406 70.695312 255.132812 C 66.664062 252.074219 63.796875 248.066406 62.105469 243.121094 L 60.152344 238.628906 C 58.851562 235.636719 56.800781 232.3125 54 228.667969 C 51.199219 225.023438 48.371094 222.550781 45.503906 221.246094 L 44.136719 220.269531 C 43.226562 219.617188 42.382812 218.832031 41.597656 217.921875 C 40.816406 217.011719 40.234375 216.101562 39.84375 215.1875 C 39.453125 214.277344 39.777344 213.527344 40.820312 212.9375 C 41.863281 212.351562 43.746094 212.066406 46.484375 212.066406 L 50.386719 212.648438 C 52.992188 213.171875 56.214844 214.730469 60.054688 217.335938 C 63.894531 219.941406 67.054688 223.324219 69.527344 227.488281 C 72.523438 232.828125 76.132812 236.898438 80.367188 239.699219 C 84.597656 242.5 88.863281 243.894531 93.160156 243.894531 C 97.453125 243.894531 101.164062 243.570312 104.292969 242.921875 C 107.414062 242.269531 110.34375 241.292969 113.078125 239.992188 C 114.25 231.261719 117.441406 224.558594 122.648438 219.871094 C 115.226562 219.09375 108.554688 217.917969 102.628906 216.355469 C 96.707031 214.792969 90.585938 212.253906 84.273438 208.734375 C 77.953125 205.222656 72.714844 200.859375 68.550781 195.652344 C 64.382812 190.445312 60.964844 183.605469 58.296875 175.144531 C 55.628906 166.679688 54.292969 156.914062 54.292969 145.847656 C 54.292969 130.089844 59.4375 116.679688 69.722656 105.613281 C 64.90625 93.765625 65.359375 80.484375 71.089844 65.773438 C 74.867188 64.597656 80.464844 65.480469 87.886719 68.40625 C 95.308594 71.339844 100.742188 73.847656 104.195312 75.929688 C 107.648438 78.007812 110.414062 79.773438 112.496094 81.203125 C 124.609375 77.816406 137.105469 76.125 149.996094 76.125 C 162.886719 76.125 175.386719 77.816406 187.5 81.203125 L 194.921875 76.515625 C 199.996094 73.390625 205.988281 70.523438 212.886719 67.921875 C 219.785156 65.316406 225.0625 64.601562 228.710938 65.773438 C 234.566406 80.488281 235.089844 93.769531 230.269531 105.613281 C 240.554688 116.683594 245.703125 130.097656 245.703125 145.851562 C 245.703125 156.917969 244.363281 166.710938 241.699219 175.242188 C 239.03125 183.773438 235.582031 190.605469 231.351562 195.75 C 227.117188 200.894531 221.84375 205.222656 215.527344 208.738281 C 209.214844 212.253906 203.089844 214.792969 197.167969 216.355469 C 191.242188 217.917969 184.570312 219.09375 177.148438 219.875 C 183.917969 225.734375 187.304688 234.976562 187.304688 247.605469 L 187.304688 288.8125 C 187.304688 291.15625 188.117188 293.109375 189.746094 294.671875 C 191.375 296.230469 193.945312 296.6875 197.460938 296.035156 C 227.671875 286.011719 252.3125 267.945312 271.386719 241.839844 C 290.457031 215.734375 299.996094 186.34375 299.996094 153.65625 C 299.992188 126.453125 293.28125 101.359375 279.875 78.375 Z M 279.875 78.375 "/>
</g>
</svg>
