<?xml version="1.0" encoding="UTF-8"?>
<svg xmlns="http://www.w3.org/2000/svg" xmlns:xlink="http://www.w3.org/1999/xlink" width="337.5pt" height="299.999988pt" viewBox="0 0 337.5 299.999988" version="1.2">
<defs>
<clipPath id="clip1">
  <path d="M 0 1 L 333 1 L 333 299.777344 L 0 299.777344 Z M 0 1 "/>
</clipPath>
</defs>
<g id="surface1">
<g clip-path="url(#clip1)" clip-rule="nonzero">
<path style=" stroke:none;fill-rule:nonzero;fill:rgb(100%,100%,100%);fill-opacity:1;" d="M 0.980469 149.894531 C 0.980469 174.957031 25.417969 198.355469 63.941406 211.542969 C 56.246094 250.332031 62.5625 281.59375 83.652344 293.777344 C 105.332031 306.296875 137.625 297.628906 168.277344 270.792969 C 198.15625 296.546875 228.355469 306.679688 249.425781 294.464844 C 271.085938 281.90625 277.671875 248.523438 269.765625 208.523438 C 309.890625 195.238281 332.335938 175.289062 332.335938 149.894531 C 332.335938 125.414062 307.855469 104.234375 269.851562 91.132812 C 278.359375 49.480469 271.148438 18.976562 249.1875 6.292969 C 228.011719 -5.9375 197.460938 4.71875 167.144531 31.148438 C 135.601562 3.097656 105.355469 -5.464844 83.414062 7.253906 C 62.257812 19.519531 56.222656 51.351562 63.941406 90.855469 C 26.71875 103.855469 0.980469 125.511719 0.980469 149.894531 Z M 0.980469 149.894531 "/>
</g>
<path style=" stroke:none;fill-rule:nonzero;fill:rgb(32.548523%,75.689697%,87.059021%);fill-opacity:1;" d="M 261.800781 104.144531 C 258.667969 103.066406 255.511719 102.070312 252.328125 101.15625 C 252.855469 99.007812 253.34375 96.851562 253.792969 94.683594 C 260.964844 59.820312 256.273438 31.734375 240.265625 22.492188 C 224.914062 13.625 199.808594 22.871094 174.449219 44.96875 C 171.953125 47.152344 169.507812 49.398438 167.125 51.703125 C 165.527344 50.167969 163.902344 48.667969 162.246094 47.191406 C 135.671875 23.5625 109.035156 13.601562 93.042969 22.875 C 77.707031 31.765625 73.164062 58.171875 79.621094 91.210938 C 80.261719 94.484375 80.988281 97.738281 81.792969 100.972656 C 78.027344 102.042969 74.386719 103.1875 70.902344 104.402344 C 39.75 115.28125 19.851562 132.332031 19.851562 150.015625 C 19.851562 168.28125 41.210938 186.601562 73.660156 197.710938 C 76.292969 198.605469 78.945312 199.4375 81.617188 200.203125 C 80.75 203.6875 79.980469 207.195312 79.308594 210.722656 C 73.152344 243.1875 77.960938 268.96875 93.253906 277.804688 C 109.054688 286.929688 135.570312 277.550781 161.390625 254.945312 C 163.429688 253.160156 165.480469 251.261719 167.53125 249.277344 C 170.113281 251.773438 172.765625 254.195312 175.484375 256.546875 C 200.496094 278.101562 225.195312 286.804688 240.476562 277.945312 C 256.261719 268.792969 261.390625 241.101562 254.730469 207.40625 C 254.222656 204.832031 253.628906 202.207031 252.964844 199.527344 C 254.828125 198.976562 256.65625 198.410156 258.4375 197.816406 C 292.171875 186.625 314.121094 168.527344 314.121094 150.015625 C 314.121094 132.265625 293.585938 115.101562 261.800781 104.144531 Z M 261.800781 104.144531 "/>
<path style=" stroke:none;fill-rule:nonzero;fill:rgb(100%,100%,100%);fill-opacity:1;" d="M 254.484375 185.867188 C 252.875 186.402344 251.222656 186.914062 249.542969 187.414062 C 245.816406 175.605469 240.789062 163.050781 234.640625 150.078125 C 240.511719 137.414062 245.339844 125.019531 248.960938 113.285156 C 251.972656 114.160156 254.894531 115.078125 257.710938 116.050781 C 284.941406 125.4375 301.550781 139.320312 301.550781 150.015625 C 301.550781 161.410156 283.613281 176.199219 254.484375 185.867188 Z M 242.398438 209.851562 C 245.34375 224.75 245.761719 238.222656 243.8125 248.75 C 242.058594 258.210938 238.535156 264.519531 234.179688 267.046875 C 224.902344 272.421875 205.070312 265.433594 183.683594 247 C 181.230469 244.890625 178.761719 242.632812 176.285156 240.246094 C 184.574219 231.160156 192.863281 220.601562 200.949219 208.875 C 215.175781 207.613281 228.617188 205.542969 240.804688 202.722656 C 241.40625 205.148438 241.9375 207.527344 242.398438 209.851562 Z M 120.175781 266.117188 C 111.113281 269.324219 103.898438 269.414062 99.535156 266.894531 C 90.253906 261.535156 86.394531 240.835938 91.660156 213.070312 C 92.285156 209.789062 93 206.527344 93.808594 203.285156 C 105.859375 205.957031 119.203125 207.878906 133.464844 209.035156 C 141.605469 220.511719 150.128906 231.058594 158.722656 240.292969 C 156.898438 242.0625 155.027344 243.785156 153.117188 245.464844 C 141.699219 255.460938 130.257812 262.550781 120.175781 266.117188 Z M 77.726562 185.796875 C 63.378906 180.882812 51.527344 174.5 43.40625 167.535156 C 36.105469 161.273438 32.421875 155.058594 32.421875 150.015625 C 32.421875 139.285156 48.398438 125.597656 75.042969 116.292969 C 78.386719 115.128906 81.761719 114.066406 85.171875 113.101562 C 88.851562 125.097656 93.683594 137.640625 99.511719 150.324219 C 93.609375 163.195312 88.707031 175.9375 84.992188 188.074219 C 82.550781 187.375 80.128906 186.617188 77.726562 185.796875 Z M 91.957031 88.792969 C 86.425781 60.484375 90.097656 39.128906 99.339844 33.773438 C 109.1875 28.066406 130.953125 36.203125 153.898438 56.609375 C 155.367188 57.910156 156.839844 59.277344 158.316406 60.691406 C 149.765625 69.882812 141.316406 80.351562 133.246094 91.757812 C 119.40625 93.042969 106.160156 95.109375 93.980469 97.871094 C 93.230469 94.863281 92.554688 91.835938 91.957031 88.789062 Z M 218.890625 120.183594 C 216.015625 115.207031 213.03125 110.292969 209.941406 105.445312 C 219.332031 106.632812 228.328125 108.210938 236.773438 110.140625 C 234.238281 118.28125 231.078125 126.792969 227.355469 135.519531 C 224.636719 130.351562 221.816406 125.238281 218.890625 120.183594 Z M 167.128906 69.6875 C 172.925781 75.976562 178.734375 83.003906 184.445312 90.625 C 172.851562 90.078125 161.257812 90.074219 149.664062 90.617188 C 155.382812 83.066406 161.238281 76.050781 167.128906 69.6875 Z M 115.03125 120.269531 C 112.144531 125.285156 109.375 130.367188 106.726562 135.511719 C 103.0625 126.816406 99.933594 118.265625 97.375 110.007812 C 105.769531 108.125 114.722656 106.589844 124.050781 105.421875 C 120.929688 110.300781 117.921875 115.25 115.03125 120.269531 Z M 124.320312 195.507812 C 114.683594 194.429688 105.59375 192.972656 97.199219 191.140625 C 99.800781 182.738281 103 174.003906 106.738281 165.121094 C 109.402344 170.273438 112.183594 175.355469 115.082031 180.375 C 118.042969 185.492188 121.121094 190.539062 124.320312 195.507812 Z M 167.476562 231.234375 C 161.515625 224.792969 155.574219 217.671875 149.769531 210.011719 C 155.402344 210.234375 161.148438 210.347656 166.988281 210.347656 C 172.984375 210.347656 178.914062 210.210938 184.75 209.949219 C 179.019531 217.75 173.234375 224.882812 167.476562 231.234375 Z M 227.476562 164.671875 C 231.410156 173.648438 234.726562 182.335938 237.359375 190.597656 C 228.824219 192.546875 219.613281 194.117188 209.90625 195.28125 C 213.019531 190.34375 216.03125 185.34375 218.941406 180.285156 C 221.902344 175.144531 224.746094 169.9375 227.476562 164.671875 Z M 208.050781 173.996094 C 203.59375 181.753906 198.886719 189.359375 193.933594 196.808594 C 185.203125 197.433594 176.179688 197.757812 166.988281 197.757812 C 157.828125 197.757812 148.921875 197.46875 140.34375 196.914062 C 135.261719 189.480469 130.46875 181.863281 125.960938 174.066406 C 121.476562 166.308594 117.292969 158.394531 113.40625 150.320312 C 117.28125 142.242188 121.453125 134.320312 125.925781 126.558594 L 125.925781 126.5625 C 130.390625 118.796875 135.148438 111.214844 140.191406 103.8125 C 148.945312 103.148438 157.917969 102.800781 166.988281 102.800781 C 176.097656 102.800781 185.082031 103.152344 193.832031 103.820312 C 198.824219 111.210938 203.550781 118.765625 208.011719 126.492188 C 212.496094 134.238281 216.726562 142.121094 220.699219 150.140625 C 216.765625 158.242188 212.550781 166.195312 208.054688 173.996094 Z M 233.984375 33.398438 C 243.839844 39.089844 247.671875 62.042969 241.480469 92.144531 C 241.074219 94.105469 240.632812 96.058594 240.15625 98.003906 C 227.949219 95.179688 214.691406 93.082031 200.8125 91.777344 C 192.726562 80.246094 184.347656 69.757812 175.9375 60.683594 C 178.140625 58.554688 180.394531 56.484375 182.703125 54.46875 C 204.429688 35.53125 224.734375 28.054688 233.984375 33.398438 Z M 233.984375 33.398438 "/>
<path style=" stroke:none;fill-rule:nonzero;fill:rgb(32.548523%,75.689697%,87.059021%);fill-opacity:1;" d="M 166.988281 123.699219 C 181.5 123.699219 193.265625 135.480469 193.265625 150.015625 C 193.265625 164.550781 181.5 176.335938 166.988281 176.335938 C 152.476562 176.335938 140.710938 164.550781 140.710938 150.015625 C 140.710938 135.480469 152.476562 123.699219 166.988281 123.699219 "/>
</g>
</svg>
