<?xml version="1.0" encoding="UTF-8"?>
<svg xmlns="http://www.w3.org/2000/svg" xmlns:xlink="http://www.w3.org/1999/xlink" width="300pt" height="299.999988pt" viewBox="0 0 300 299.999988" version="1.2">
<g id="surface1">
<path style=" stroke:none;fill-rule:nonzero;fill:rgb(100%,100%,100%);fill-opacity:1;" d="M 0.882812 149.503906 C 0.882812 171.984375 22.863281 192.964844 57.519531 204.792969 C 50.597656 239.578125 56.277344 267.617188 75.25 278.542969 C 94.75 289.773438 123.800781 282 151.375 257.929688 C 178.253906 281.027344 205.417969 290.117188 224.371094 279.160156 C 243.855469 267.898438 249.78125 237.960938 242.667969 202.085938 C 278.761719 190.171875 298.953125 172.277344 298.953125 149.503906 C 298.953125 127.550781 276.933594 108.554688 242.746094 96.804688 C 250.398438 59.449219 243.914062 32.09375 224.15625 20.714844 C 205.109375 9.746094 177.628906 19.308594 150.355469 43.007812 C 121.980469 17.851562 94.773438 10.171875 75.035156 21.582031 C 56.003906 32.578125 50.574219 61.128906 57.519531 96.558594 C 24.035156 108.214844 0.882812 127.640625 0.882812 149.503906 Z M 0.882812 149.503906 "/>
<path style=" stroke:none;fill-rule:nonzero;fill:rgb(32.548523%,75.689697%,87.059021%);fill-opacity:1;" d="M 235.503906 108.472656 C 232.6875 107.507812 229.847656 106.617188 226.984375 105.792969 C 227.457031 103.867188 227.898438 101.933594 228.300781 99.988281 C 234.75 68.722656 230.53125 43.535156 216.128906 35.246094 C 202.320312 27.292969 179.738281 35.582031 156.925781 55.402344 C 154.679688 57.359375 152.480469 59.375 150.335938 61.441406 C 148.898438 60.066406 147.4375 58.71875 145.949219 57.398438 C 122.046875 36.203125 98.085938 27.273438 83.695312 35.589844 C 69.902344 43.5625 65.816406 67.242188 71.621094 96.875 C 72.199219 99.808594 72.851562 102.726562 73.578125 105.628906 C 70.1875 106.589844 66.914062 107.617188 63.78125 108.707031 C 35.757812 118.460938 17.859375 133.753906 17.859375 149.613281 C 17.859375 165.996094 37.070312 182.425781 66.261719 192.386719 C 68.628906 193.191406 71.015625 193.9375 73.421875 194.621094 C 72.640625 197.75 71.945312 200.894531 71.339844 204.058594 C 65.804688 233.175781 70.128906 256.292969 83.886719 264.21875 C 98.097656 272.402344 121.953125 263.992188 145.179688 243.71875 C 147.015625 242.117188 148.855469 240.414062 150.703125 238.632812 C 153.027344 240.875 155.410156 243.046875 157.855469 245.152344 C 180.355469 264.484375 202.574219 272.289062 216.320312 264.34375 C 230.519531 256.136719 235.132812 231.300781 229.144531 201.085938 C 228.6875 198.777344 228.152344 196.417969 227.554688 194.019531 C 229.230469 193.523438 230.875 193.015625 232.476562 192.484375 C 262.824219 182.445312 282.570312 166.214844 282.570312 149.613281 C 282.570312 133.695312 264.09375 118.300781 235.503906 108.472656 Z M 235.503906 108.472656 "/>
<path style=" stroke:none;fill-rule:nonzero;fill:rgb(100%,100%,100%);fill-opacity:1;" d="M 228.921875 181.765625 C 227.476562 182.246094 225.988281 182.707031 224.476562 183.15625 C 221.125 172.566406 216.601562 161.304688 211.070312 149.667969 C 216.351562 138.3125 220.699219 127.195312 223.953125 116.671875 C 226.660156 117.457031 229.289062 118.28125 231.824219 119.152344 C 256.320312 127.570312 271.261719 140.019531 271.261719 149.613281 C 271.261719 159.832031 255.125 173.097656 228.921875 181.765625 Z M 218.050781 203.277344 C 220.699219 216.636719 221.078125 228.71875 219.324219 238.164062 C 217.746094 246.648438 214.574219 252.304688 210.65625 254.570312 C 202.3125 259.394531 184.472656 253.125 165.234375 236.59375 C 163.027344 234.699219 160.804688 232.675781 158.578125 230.535156 C 166.035156 222.386719 173.488281 212.917969 180.765625 202.402344 C 193.5625 201.269531 205.652344 199.414062 216.617188 196.882812 C 217.15625 199.058594 217.636719 201.191406 218.050781 203.277344 Z M 108.101562 253.738281 C 99.953125 256.613281 93.460938 256.695312 89.539062 254.4375 C 81.1875 249.628906 77.71875 231.0625 82.453125 206.164062 C 83.015625 203.222656 83.660156 200.296875 84.382812 197.386719 C 95.226562 199.78125 107.230469 201.507812 120.058594 202.546875 C 127.378906 212.835938 135.050781 222.292969 142.78125 230.578125 C 141.136719 232.164062 139.457031 233.710938 137.738281 235.214844 C 127.464844 244.179688 117.175781 250.539062 108.105469 253.738281 Z M 69.917969 181.703125 C 57.011719 177.296875 46.351562 171.574219 39.046875 165.324219 C 32.480469 159.710938 29.164062 154.136719 29.164062 149.613281 C 29.164062 139.988281 43.535156 127.710938 67.503906 119.367188 C 70.511719 118.324219 73.550781 117.371094 76.613281 116.507812 C 79.929688 127.265625 84.273438 138.511719 89.515625 149.886719 C 84.207031 161.433594 79.796875 172.859375 76.453125 183.746094 C 74.257812 183.117188 72.082031 182.4375 69.917969 181.703125 Z M 82.71875 94.707031 C 77.746094 69.316406 81.046875 50.167969 89.363281 45.363281 C 98.21875 40.242188 117.800781 47.542969 138.441406 65.839844 C 139.761719 67.011719 141.085938 68.234375 142.414062 69.503906 C 134.722656 77.75 127.121094 87.136719 119.863281 97.367188 C 107.414062 98.519531 95.496094 100.371094 84.539062 102.847656 C 83.863281 100.148438 83.257812 97.433594 82.71875 94.703125 Z M 196.902344 122.859375 C 194.316406 118.394531 191.632812 113.988281 188.855469 109.640625 C 197.300781 110.707031 205.394531 112.121094 212.992188 113.851562 C 210.710938 121.152344 207.867188 128.789062 204.519531 136.613281 C 202.074219 131.976562 199.535156 127.394531 196.902344 122.859375 Z M 150.339844 77.570312 C 155.554688 83.214844 160.777344 89.515625 165.917969 96.347656 C 155.488281 95.855469 145.058594 95.855469 134.632812 96.34375 C 139.773438 89.570312 145.042969 83.28125 150.339844 77.570312 Z M 103.476562 122.9375 C 100.878906 127.433594 98.390625 131.992188 96.003906 136.605469 C 92.710938 128.804688 89.894531 121.136719 87.59375 113.734375 C 95.144531 112.046875 103.199219 110.667969 111.59375 109.621094 C 108.78125 113.996094 106.078125 118.433594 103.476562 122.9375 Z M 111.832031 190.414062 C 103.164062 189.445312 94.988281 188.136719 87.4375 186.496094 C 89.773438 178.960938 92.652344 171.128906 96.019531 163.160156 C 98.410156 167.78125 100.914062 172.339844 103.523438 176.839844 C 106.183594 181.429688 108.953125 185.953125 111.832031 190.414062 Z M 150.652344 222.453125 C 145.292969 216.675781 139.945312 210.289062 134.726562 203.421875 C 139.792969 203.617188 144.960938 203.71875 150.214844 203.71875 C 155.609375 203.71875 160.941406 203.597656 166.191406 203.363281 C 161.039062 210.359375 155.832031 216.757812 150.652344 222.453125 Z M 204.625 162.757812 C 208.164062 170.808594 211.148438 178.597656 213.515625 186.007812 C 205.839844 187.757812 197.554688 189.164062 188.824219 190.210938 C 191.621094 185.78125 194.332031 181.296875 196.949219 176.761719 C 199.613281 172.148438 202.171875 167.480469 204.625 162.757812 Z M 187.152344 171.121094 C 183.144531 178.078125 178.910156 184.898438 174.453125 191.578125 C 166.601562 192.140625 158.484375 192.429688 150.214844 192.429688 C 141.976562 192.429688 133.964844 192.171875 126.246094 191.671875 C 121.675781 185.003906 117.363281 178.175781 113.308594 171.183594 C 109.273438 164.226562 105.511719 157.125 102.015625 149.882812 C 105.5 142.640625 109.253906 135.539062 113.273438 128.574219 L 113.273438 128.578125 C 117.292969 121.613281 121.574219 114.8125 126.109375 108.175781 C 133.984375 107.582031 142.054688 107.269531 150.214844 107.269531 C 158.410156 107.269531 166.492188 107.582031 174.363281 108.183594 C 178.855469 114.808594 183.105469 121.589844 187.117188 128.515625 C 191.152344 135.460938 194.957031 142.53125 198.527344 149.722656 C 194.992188 156.992188 191.199219 164.121094 187.15625 171.121094 Z M 210.480469 45.027344 C 219.347656 50.132812 222.792969 70.714844 217.222656 97.710938 C 216.859375 99.46875 216.460938 101.222656 216.035156 102.964844 C 205.050781 100.433594 193.125 98.550781 180.640625 97.382812 C 173.367188 87.039062 165.828125 77.636719 158.265625 69.496094 C 160.246094 67.589844 162.277344 65.730469 164.351562 63.921875 C 183.894531 46.9375 202.160156 40.234375 210.480469 45.027344 Z M 210.480469 45.027344 "/>
<path style=" stroke:none;fill-rule:nonzero;fill:rgb(32.548523%,75.689697%,87.059021%);fill-opacity:1;" d="M 150.214844 126.011719 C 163.269531 126.011719 173.851562 136.578125 173.851562 149.613281 C 173.851562 162.648438 163.269531 173.21875 150.214844 173.21875 C 137.160156 173.21875 126.574219 162.648438 126.574219 149.613281 C 126.574219 136.578125 137.160156 126.011719 150.214844 126.011719 "/>
</g>
</svg>
