<?xml version="1.0" standalone="no"?>
<svg viewBox="0 0 200 200" xmlns="http://www.w3.org/2000/svg">
  <path fill="#57BE6A" d="M44.8,-76.6C58.8,-69.4,71.5,-59,80.1,-45.7C88.8,-32.4,93.4,-16.2,90.5,-1.7C87.6,12.8,77.2,25.7,68.5,38.9C59.8,52.1,52.8,65.7,41.7,72.4C30.5,79,15.3,78.7,-0.5,79.5C-16.2,80.3,-32.5,82.4,-43.8,75.9C-55.2,69.4,-61.7,54.4,-68.2,40.3C-74.8,26.3,-81.3,13.1,-83.7,-1.4C-86.1,-15.9,-84.4,-31.8,-76.2,-43C-68,-54.2,-53.4,-60.7,-39.6,-68.1C-25.9,-75.4,-12.9,-83.6,1.2,-85.7C15.4,-87.8,30.7,-83.8,44.8,-76.6Z" transform="translate(100 100)" />
</svg>
