<?xml version="1.0" standalone="no"?>
<svg viewBox="0 0 200 200" xmlns="http://www.w3.org/2000/svg">
  <path fill="#E08031" d="M37.4,-65.9C49.1,-58,59.7,-49.3,67.1,-38.2C74.6,-27.1,78.8,-13.5,78.9,0C79,13.6,74.9,27.2,67,37.5C59,47.7,47.2,54.6,35.5,62.8C23.7,71,11.8,80.5,-1.6,83.3C-15,86,-30.1,82.1,-41,73.4C-52,64.8,-58.9,51.4,-67.1,38.4C-75.3,25.3,-84.7,12.7,-83.8,0.5C-83,-11.7,-72,-23.5,-62.8,-34.7C-53.6,-46,-46.3,-56.8,-36.2,-65.6C-26,-74.4,-13,-81.2,-0.1,-81C12.8,-80.9,25.7,-73.8,37.4,-65.9Z" transform="translate(100 100)" />
</svg>
